<svg id="圖層_1" data-name="圖層 1" xmlns="http://www.w3.org/2000/svg" viewBox="0 0 380 242"><defs><style>.cls-1{fill:#fffaf7;}.cls-2{fill:#ffe1c8;}.cls-3{fill:none;stroke:#ff6700;stroke-miterlimit:10;stroke-width:1.09px;}.cls-4{fill:#fff;}.cls-5{fill:#ff6700;}</style></defs><rect class="cls-1" width="380" height="242"/><circle class="cls-2" cx="134.09" cy="-11.06" r="207.22"/><rect class="cls-3" x="215.88" y="29.75" width="139.85" height="178.82"/><circle class="cls-4" cx="239.77" cy="30.75" r="7.74"/><circle class="cls-5" cx="67.74" cy="235.35" r="17.09"/><circle class="cls-4" cx="9.67" cy="19.19" r="0.64"/><circle class="cls-4" cx="13.31" cy="19.19" r="0.64"/><circle class="cls-4" cx="2.41" cy="19.19" r="0.64"/><circle class="cls-4" cx="6.04" cy="19.19" r="0.64"/><circle class="cls-4" cx="16.94" cy="19.19" r="0.64"/><circle class="cls-4" cx="20.58" cy="19.19" r="0.64"/><circle class="cls-4" cx="9.67" cy="23.15" r="0.64"/><circle class="cls-4" cx="13.31" cy="23.15" r="0.64"/><circle class="cls-4" cx="2.41" cy="23.15" r="0.64"/><circle class="cls-4" cx="6.04" cy="23.15" r="0.64"/><circle class="cls-4" cx="16.94" cy="23.15" r="0.64"/><circle class="cls-4" cx="20.58" cy="23.15" r="0.64"/><circle class="cls-4" cx="9.67" cy="27.1" r="0.64"/><circle class="cls-4" cx="13.31" cy="27.1" r="0.64"/><circle class="cls-4" cx="2.41" cy="27.1" r="0.64"/><circle class="cls-4" cx="6.04" cy="27.1" r="0.64"/><circle class="cls-4" cx="16.94" cy="27.1" r="0.64"/><circle class="cls-4" cx="20.58" cy="27.1" r="0.64"/></svg>